<?xml version="1.0" encoding="UTF-8"?>
<svg width="16px" height="16px" viewBox="0 0 16 16" version="1.1" xmlns="http://www.w3.org/2000/svg" xmlns:xlink="http://www.w3.org/1999/xlink">
    <!-- Generator: Sketch 60.1 (88133) - https://sketch.com -->
    <title>问题反馈</title>
    <desc>Created with Sketch.</desc>
    <g id="页面-1" stroke="none" stroke-width="1" fill="none" fill-rule="evenodd">
        <g id="天池首页—深色方案" transform="translate(-1154.000000, -105.000000)" fill="#373D41" fill-rule="nonzero">
            <g id="编组-3">
                <g id="编组">
                    <g id="编组-18" transform="translate(1154.000000, 101.000000)">
                        <g id="问题反馈" transform="translate(0.000000, 4.000000)">
                            <path d="M4.072,14.8955997 C3.8012648,15.0866556 3.44642542,15.1119234 3.15118601,14.96117 C2.8559466,14.8104167 2.66923512,14.5086255 2.66666667,14.1780169 L2.66666667,12.3619126 L0.888888889,12.3619126 C0.398222222,12.3619126 0,11.9659132 0,11.4786657 L0,0.883246869 C0,0.395999349 0.398222222,0 0.888888889,0 L15.1111111,0 C15.6017778,0 16,0.395113444 16,0.883246869 L16,11.4786657 C16,11.9659132 15.6017778,12.3610266 15.1111111,12.3610266 L7.64444444,12.3610266 L4.072,14.8955997 Z M15.1111111,0.885904583 L0.888888889,0.885904583 L0.888888889,11.4751221 L3.55555556,11.4751221 L3.55555556,14.1744733 L7.36,11.4751221 L15.1111111,11.4751221 L15.1111111,0.885904583 Z M2.66666667,3.54361833 L13.3333333,3.54361833 L13.3333333,4.42952292 L2.66666667,4.42952292 L2.66666667,3.54361833 Z M2.66666667,7.08723667 L8,7.08723667 L8,7.97314125 L2.66666667,7.97314125 L2.66666667,7.08723667 Z" id="形状"></path>
                        </g>
                    </g>
                </g>
            </g>
        </g>
    </g>
</svg>